<svg width="760" height="420" viewBox="0 0 760 420" fill="none" xmlns="http://www.w3.org/2000/svg">
  <rect width="760" height="420" rx="28" fill="#080B18"/>
  <path d="M0 80H760M0 160H760M0 240H760M0 320H760M80 0V420M160 0V420M240 0V420M320 0V420M400 0V420M480 0V420M560 0V420M640 0V420M720 0V420" stroke="#1E293B" stroke-width="2"/>
  <rect x="96" y="96" width="80" height="80" rx="12" fill="#1F3F32"/>
  <rect x="184" y="96" width="80" height="80" rx="12" fill="#254E38"/>
  <rect x="272" y="96" width="80" height="80" rx="12" fill="#1F3F32"/>
  <rect x="420" y="112" width="44" height="44" fill="#A78BFA"/>
  <rect x="324" y="260" width="40" height="40" fill="#FACC15"/>
  <rect x="520" y="240" width="28" height="28" fill="#22D3EE"/>
  <rect x="230" y="260" width="28" height="28" fill="#22D3EE"/>
  <rect x="380" y="320" width="28" height="28" fill="#22D3EE"/>
  <rect x="72" y="330" width="616" height="54" rx="12" fill="#000000" fill-opacity="0.62"/>
  <text x="96" y="365" fill="#FFFFFF" font-size="24" font-family="monospace">Farm village: plant, harvest, chop, mine → claim proof</text>
  <circle cx="380" cy="210" r="42" fill="#A78BFA" fill-opacity="0.18"/>
  <polygon points="370,192 370,228 402,210" fill="#F8FAFC"/>
</svg>
